<svg class="nav__logo" width="79" height="42" viewBox="0 0 84 46" xmlns="http://www.w3.org/2000/svg" fill-rule="evenodd" clip-rule="evenodd" stroke-linejoin="round" stroke-miterlimit="2" fill="blue">
  <g fill-rule="nonzero">
    <path d="M59.84 23.717a2.661 2.661 0 00-1.39-1.6 6.1 6.1 0 00-3-.64 7.177 7.177 0 00-2.51.41 4.8 4.8 0 00-1.82 1.14 3.638 3.638 0 00-.93 1.5c-.197.77-.344 1.551-.44 2.34l-.57 4.21a9.588 9.588 0 000 3.18c.186.73.694 1.338 1.38 1.65a6.413 6.413 0 003 .6 6.555 6.555 0 003.12-.7 4.145 4.145 0 001.81-1.64c.427-1.01.697-2.079.8-3.17l.08-.57h-4.26l-.25 1.81a4.736 4.736 0 01-.36 1.51.703.703 0 01-.66.32c-.32 0-.52-.11-.58-.32a4.04 4.04 0 010-1.37l.92-6.71c.04-.49.154-.974.34-1.43a.74.74 0 01.7-.32c.31 0 .5.09.56.27.08.45.08.91 0 1.36l-.35 2.51h4.26l.19-1.37a8.35 8.35 0 00-.04-2.97z"/>
    <path d="M71.64 34.947c3.58 2.33 5.46 4.38 5 5.82-.51 1.61-3.85 2.18-9 1.82a29.214 29.214 0 003.243-13.377C70.883 13.186 57.697 0 41.673 0 27.237 0 14.857 10.702 12.77 24.987c-3.74-2.4-5.72-4.51-5.26-6 .46-1.49 3.17-2 7.44-1.9-8.61-1.41-14.31-1.33-14.9.55-.81 2.59 8.2 7.88 21.93 13.35-.113.782-.183 1.57-.21 2.36-.002.592.184 1.17.53 1.65.383.526.917.923 1.53 1.14a6.559 6.559 0 002.31.38 7.263 7.263 0 002.48-.4 4.682 4.682 0 001.81-1.15c.183-.194.347-.405.49-.63l2.33.81v1.06h3.17l3.33 1.07c23.06 7.26 42.67 10.23 43.79 6.64.59-1.86-4.03-5.2-11.9-8.97zm-44.58-1.2a.622.622 0 01-.61.34c-.28 0-.45-.1-.5-.29-.04-.518-.01-1.04.09-1.55l.93-6.75c.014-.469.137-.928.36-1.34a.708.708 0 01.54-.23c.27 0 .43.09.49.28.07.427.07.863 0 1.29l-.91 6.64a6.801 6.801 0 01-.38 1.61h-.01zm11.46 2.43c1.14-3.813 1.88-6.327 2.22-7.54 0 2.83.08 5.36.25 7.58h5.3l3.88-14.42h-4.14a116.384 116.384 0 00-2.59 10.26l.27-5.49c.13-2.76.2-4.34.2-4.76H39.5c-1.187 4.08-2.033 7.383-2.54 9.91l.24-4.87.24-5h-4.13l-.06 12.59-2-.72c.046-.11.086-.225.12-.34.235-1.016.415-2.044.54-3.08l.34-2.46c.165-1.033.27-2.075.31-3.12 0-.589-.185-1.163-.53-1.64a3.211 3.211 0 00-1.53-1.14 6.608 6.608 0 00-2.31-.38 7.215 7.215 0 00-2.48.4 4.645 4.645 0 00-1.81 1.15 3.736 3.736 0 00-1 1.65 28.92 28.92 0 00-.54 3.08l-.3 2.14a101.631 101.631 0 01-3.6-1.71c.517-12.34 10.81-22.21 23.16-22.21 12.716 0 23.18 10.464 23.18 23.18a23.18 23.18 0 01-3.75 12.64 154.235 154.235 0 01-21.06-5.25l-1.47-.45z"/>
  </g>
</svg>
